<svg xmlns="http://www.w3.org/2000/svg" viewBox="0 0 620.9 301.11"><defs><style>.cls-1{isolation:isolate;}.cls-2{fill:#72324f;}.cls-3{fill:#d15b7b;}.cls-4{opacity:0.3;mix-blend-mode:overlay;}.cls-5{fill:#ffffe8;}.cls-6{fill:#6abad1;}.cls-7{fill:#ffac1c;}.cls-8{fill:#6a358e;}</style></defs><title>Recurso 3</title><g class="cls-1"><g id="Capa_2" data-name="Capa 2"><g id="Capa_1-2" data-name="Capa 1"><path class="cls-2" d="M62.38,235.73Q31,235.73,0,233.1l.27-3.17C227.82,249.26,459,163.3,618.63,0l2.27,2.22c-78.25,80.05-176.8,143.62-285,183.86C247.73,218.86,154.29,235.73,62.38,235.73Z"/><path class="cls-3" d="M141.93,230.06l51.32,68.5a6.37,6.37,0,0,0,11.2-2l24.61-82a6.37,6.37,0,0,0-7.21-8.11L145.92,220A6.37,6.37,0,0,0,141.93,230.06Z"/><g class="cls-4"><polygon class="cls-5" points="162.69 216.99 151.35 242.63 154.63 247 168.36 215.99 162.69 216.99"/><path class="cls-5" d="M175,240.2c4.06-9,8.22-18.17,12-27.52l-5.57,1c-3.43,8.31-7.14,16.53-10.78,24.56L162.13,257l3.26,4.36Z"/><path class="cls-5" d="M196.25,211a559.71,559.71,0,0,1-22.46,61.55l3.27,4.37a564.66,564.66,0,0,0,24.47-66.86Z"/><path class="cls-5" d="M221.22,206.6l-5.42,1c-9.7,26.58-20.24,53-31.5,79l3.29,4.4C199.66,263.26,210.92,235,221.22,206.6Z"/></g><path class="cls-6" d="M242.82,213.36l57.58,63.32a6.37,6.37,0,0,0,11-3l16.73-83.93a6.37,6.37,0,0,0-7.95-7.39l-74.31,20.62A6.36,6.36,0,0,0,242.82,213.36Z"/><g class="cls-4"><polygon class="cls-5" points="262.25 198.38 253.38 224.98 257.06 229.03 267.79 196.84 262.25 198.38"/><path class="cls-5" d="M276.68,220.32c3.19-9.32,6.46-18.87,9.33-28.53l-5.44,1.51c-2.63,8.6-5.55,17.13-8.41,25.47l-6.68,19.51,3.66,4Z"/><path class="cls-5" d="M295.08,189.27a559.8,559.8,0,0,1-16.51,63.41l3.67,4a562.66,562.66,0,0,0,18-68.87Z"/><path class="cls-5" d="M319.52,182.49l-5.3,1.47c-7.13,27.38-15.12,54.72-23.86,81.68l3.69,4.06C303.43,240.94,312,211.73,319.52,182.49Z"/></g><path class="cls-7" d="M342.78,184.08l64.94,55.74a6.37,6.37,0,0,0,10.5-4.37l6.26-85.36a6.37,6.37,0,0,0-8.8-6.35l-71.2,29.62A6.37,6.37,0,0,0,342.78,184.08Z"/><g class="cls-4"><polygon class="cls-5" points="360.21 166.82 354.69 194.3 358.84 197.87 365.52 164.61 360.21 166.82"/><path class="cls-5" d="M377.24,186.81c2-9.64,4.08-19.52,5.74-29.46l-5.22,2.17c-1.54,8.86-3.39,17.68-5.19,26.31L368.34,206l4.13,3.55Z"/><path class="cls-5" d="M391.68,153.73a561.68,561.68,0,0,1-8.58,65l4.14,3.55a564.8,564.8,0,0,0,9.39-70.57Z"/><path class="cls-5" d="M415.09,144,410,146.1c-3.7,28.05-8.26,56.17-13.61,84l4.16,3.58C406.33,204,411.2,173.94,415.09,144Z"/></g><path class="cls-8" d="M430.77,140.83l70.49,48.55a6.38,6.38,0,0,0,10-5.46l-2.83-85.54A6.36,6.36,0,0,0,499,93l-67.67,37A6.37,6.37,0,0,0,430.77,140.83Z"/><g class="cls-4"><polygon class="cls-5" points="446.27 121.82 443.7 149.74 448.2 152.84 451.32 119.06 446.27 121.82"/><path class="cls-5" d="M465.32,139.9c1-9.8,2-19.85,2.59-29.91l-5,2.71c-.6,9-1.49,18-2.38,26.72l-2.06,20.52L463,163Z"/><path class="cls-5" d="M476.17,105.47a559.3,559.3,0,0,1-1.64,65.5l4.5,3.1a565.52,565.52,0,0,0,1.85-71.17Z"/><path class="cls-5" d="M498.43,93.31,493.6,96c-.71,28.28-2.27,56.72-4.63,85l4.52,3.12C496.07,153.88,497.73,123.5,498.43,93.31Z"/></g></g></g></g></svg>