<svg xmlns="http://www.w3.org/2000/svg" viewBox="0 0 1411.37 661.28"><defs><style>.cls-1{fill:#d05794;}.cls-2{fill:#e0952f;}.cls-3{fill:#b4cd76;}.cls-4{fill:#cb4378;}.cls-5{fill:#eebf31;}.cls-6{fill:#6a358e;}.cls-7{fill:#88529b;}</style></defs><title>Recurso 5</title><g id="Capa_2" data-name="Capa 2"><g id="Capa_1-2" data-name="Capa 1"><path class="cls-1" d="M819.31,610.69l-.2-8.06s-22.53-17-43.15-14.32L771.35,606S788,595,819.31,610.69Z"/><path class="cls-2" d="M0,44.28l7.94,4S36.11,35.07,44.19,13.62L29.36,0S31.49,21.86,0,44.28Z"/><path class="cls-3" d="M169.23,630l7.94,4s28.17-13.18,36.25-34.63l-14.84-13.62S200.72,607.54,169.23,630Z"/><path class="cls-1" d="M660.31,268l-12,9.84s-2.63,25.94,20.69,41.75l-1.64-8.38,9,.09S652.38,289.35,660.31,268Z"/><path class="cls-4" d="M1371.87,166.35l-.64-18.62s53.53,4.61,36,44.16C1407.23,191.89,1399.12,176.3,1371.87,166.35Z"/><path class="cls-1" d="M1360.06,197.42s48.49,10.87,50.64-21.82c0,0,10.71,45-53.54,38.93Z"/><path class="cls-4" d="M1357.16,214.53s31.3,12.57,38.55,30.39c0,0,13.69-16.62-9.56-31.8s-26.09-15.7-26.09-15.7Z"/><path class="cls-1" d="M1379.13,285.52s-13.89-22,1-36.13,14.81-26.39,10-33.39c0,0,22.14,12.23.52,35.73-14.93,16.24,7.15,37,7.15,37Z"/><path class="cls-4" d="M72.2,366.16l.51-15s-43,3.7-28.91,35.48C43.8,386.68,50.31,374.15,72.2,366.16Z"/><path class="cls-1" d="M81.69,391.12S42.74,399.86,41,373.59c0,0-8.61,36.12,43,31.28Z"/><path class="cls-4" d="M84,404.87s-25.14,10.09-31,24.4c0,0-11-13.35,7.68-25.53s21-12.62,21-12.62Z"/><path class="cls-1" d="M66.36,461.89s11.17-17.66-.79-29-11.89-21.21-8-26.82c0,0-17.78,9.82-.42,28.7,12,13-5.74,29.68-5.74,29.68Z"/><path class="cls-2" d="M525.26,109.42l-.64,13.21S487,116.24,501.75,89.3C501.75,89.3,506.58,100.8,525.26,109.42Z"/><path class="cls-5" d="M535.43,88.15s-33.65-10.53-37.09,12.47c0,0-4.94-32.42,40.14-24.41Z"/><path class="cls-2" d="M538.48,76.21S517.08,65.5,513,52.47c0,0-10.64,11,4.9,23s17.54,12.64,17.54,12.64Z"/><path class="cls-5" d="M527.09,24.74s8.54,16.35-2.81,25.48S509,64.16,512,69.39c0,0-11.66-6.08,5-21.44,11.51-10.61-2.9-26.54-2.9-26.54Z"/><path class="cls-6" d="M1249.8,477.63l13.94-25.34s67.69,48.65,12.92,87.45C1276.66,539.74,1278.23,512.52,1249.8,477.63Z"/><path class="cls-7" d="M1209.39,509.66s56,53,84.84,11.12c0,0-21.42,68.44-102.29,9.39Z"/><path class="cls-6" d="M1191.94,530.17s31.75,41.6,27.26,71.12c0,0,31.44-11.29,12.51-50s-22.32-41.66-22.32-41.66Z"/><path class="cls-7" d="M1164.87,642.25s-1.07-40.33,30-47.37,40.69-23.44,39.83-36.57c0,0,19.81,33.87-27.66,48-32.81,9.79-19.81,54.93-19.81,54.93Z"/></g></g></svg>