<svg xmlns="http://www.w3.org/2000/svg" viewBox="0 0 389.63 346.42"><defs><style>.cls-1{fill:#528a87;}.cls-2{fill:#60a1a1;}.cls-3{fill:#f8f2c6;}.cls-4{fill:#b5b5b4;}.cls-5{fill:#dbdbdb;}.cls-6{fill:#c73f80;}.cls-7{fill:#f6dc7d;}.cls-8{fill:#fff;}</style></defs><title>Recurso 4</title><g id="Capa_2" data-name="Capa 2"><g id="Capa_1-2" data-name="Capa 1"><polygon class="cls-1" points="181.91 219.07 117.63 127.24 0 346.42 246.2 310.9 181.91 219.07"/><path class="cls-2" d="M89.42,179.81l-32.36,60.3c.9,4.82,1.94,9.69,3.19,14.58,6.43,25.25,18.57,53.74,30.66,78.61l41.63-6c-6.66-13.62-14.18-29.61-22.44-48.19C94.15,243.24,89.68,207.56,89.42,179.81Z"/><path class="cls-2" d="M166.84,322.35l41.53-6c-9.52-17.9-22.56-43.94-38.26-79.25a238.08,238.08,0,0,1-17.43-59.79l-35.05-50.08-4.73,8.82c-.89,21.41.23,48.64,7.36,76.63C129.61,249.42,151.05,293.07,166.84,322.35Z"/><path class="cls-2" d="M16.66,344l41.09-5.93q-3.72-8.1-7.66-17a231.7,231.7,0,0,1-14-42l-26,48.4C12.19,333,14.36,338.54,16.66,344Z"/><path class="cls-3" d="M246.2,310.9c-15.09,10.56-56.1-22-91.6-72.71s-52-100.39-37-110.95,56.1,22,91.6,72.71S261.28,300.34,246.2,310.9Z"/><path class="cls-4" d="M246.2,310.9c-15.09,10.56-56.1-22-91.6-72.71s-52-100.39-37-110.95,56.1,22,91.6,72.71S261.28,300.34,246.2,310.9Z"/><path class="cls-5" d="M154.6,238.19c23.33,33.33,49,58.81,68.2,69.37,6.81-14.17-7.53-52.91-35.22-92.46s-59.17-66.28-74.82-64.74C116.12,172,131.27,204.86,154.6,238.19Z"/><path class="cls-1" d="M152.89,159.85c12.56-22.29,36.39-72.39,11.56-94.81-6.26-5.64-34.52-16-37.93-.8C123,80.1,140.87,85.93,153.69,80.39c30.21-13,17.72-59.2,2.26-77.71-2.79-3.34-19.24-4.07-15.16.81,10.68,12.78,14.36,25.42,13.88,42a53.23,53.23,0,0,1-3.83,15.34q-16.2,15.78,2,9.79c16,21.08-5.68,66.48-16,84.85-2.57,4.55,13.89,8.23,16.06,4.39Z"/><path class="cls-6" d="M191.24,178.13a416.65,416.65,0,0,1,21.86-49.21c3.29-6.31,38.88-68.23,52-35.28q-4.26,23.37,4.18-7.24c4.93-11.7,15.1-20.58,24.56-28.57,14.4-12.15,33.67-19.3,50.8-26.62,9.66-4.13-3.65-13.28-10.6-10.3-38.71,16.54-76.4,35.82-87.31,79.73C242,119.77,272,121.55,280,108.32c15.64-26.08-21-37.17-38.93-33.94-36.31,6.54-56.31,72.51-66.75,101-2.65,7.22,14.14,10.42,16.94,2.79Z"/><path class="cls-7" d="M208.57,206.46c27.56,7.78,59.28,6.84,85.74-5.18,19.27-8.76,44-34.74,15.85-48.64-2.83-1.39-9-2.72-11.83-.49-16.86,13.41,3.88,26,16.75,31.54,23,9.8,48.63,4.1,71.73-1.68,9.07-2.26-6.23-8.77-11.05-7.56l-8.82,2.2Q336.45,188,312.3,158.55l-11.82-.49c25.51,12.58-19.39,36.47-26.91,39.06-19.18,6.59-39.63,8-59.24,2.46-7.51-2.12-17,3.72-5.76,6.88Z"/><path class="cls-8" d="M262.11,235.86q18.43-10.35,37.85-5.42,32.81,10.91,16.3,26.39l5.21,5.24c11.51-22,38,4.61,47.07,15.76,2.92,3.58,19.48,4.16,15.2-1.08-14.16-17.36-61.17-52-78.3-19.21-1.55,3,3,4.63,5.21,5.24,21.79,5.94,40.16-16.07,16.42-30.69-22.29-13.73-59.43-16.39-81-.77-3.22,2.33,11.74,7.65,16,4.54Z"/><path class="cls-6" d="M248.58,276.4c28.09,5.88,55.08,16.8,68.24,44.07,2.75,5.71,19.61,6.12,16.75.19-16-33.26-49.13-46.51-83.43-53.7-10.25-2.14-11.65,7.33-1.56,9.44Z"/></g></g></svg>