<?xml version="1.0" encoding="utf-8"?>
<!-- Generator: Adobe Illustrator 23.0.1, SVG Export Plug-In . SVG Version: 6.00 Build 0)  -->
<svg version="1.1" id="Capa_1" xmlns="http://www.w3.org/2000/svg" xmlns:xlink="http://www.w3.org/1999/xlink" x="0px" y="0px"
	 viewBox="0 0 1924 1247.8" style="enable-background:new 0 0 1924 1247.8;" xml:space="preserve">
<style type="text/css">
	.st0{fill:#FFA795;}
</style>
<title>Recurso 7</title>
<g>
	<g id="Capa_1-2">
		<path class="st0" d="M1935.9,391.8c-127.5,22.3-262.3,5.3-379.3-47.9s-215.7-142.1-277.8-250.5c52.7-31.3,112.6-61.3,157.7-101.9
			C1508,193.9,1714.4,358.4,1935.9,391.8z"/>
		<path class="st0" d="M459.9,1250.7c34.5-82.2-8.4-186.4-92.5-224.5c-38.9-17.6-85.2-23-116.7-50.9c-48-42.5-40.6-116-66.5-173.3
			c-31.7-70.1-121.3-111.6-199.1-92.1c5.8,54.6,3.7,117.4,9.4,172c43.3-4.6,81.5,22.6,114.7,49.3c33.3,26.7,54.2,66.7,56.6,108
			c1.1,20-1.3,42.1,11.2,58.2c11.5,14.9,32,20,49.8,27.7c50.2,21.7,84.8,72.6,85,124.9C359.8,1254.2,414.7,1266.1,459.9,1250.7z"/>
		<path class="st0" d="M852.4,1241.8c-14.2-72.2,5.8-149.8,53.5-207.5c47.7-57.7,122.2-94.4,199.2-98.2
			c52.3-2.6,104.2,9.3,156.5,12.8c52.3,3.5,109.1-3,148.3-36.1c56.8-48,56.4-130.9,81.8-199.1c30.4-81.9,105.1-147.6,193.1-170.1
			s187.3-1.2,256.7,55.3c4.7,31,11.5,54.7,16.2,85.8c-75.5-22.2-171.8-34.5-231.8,14.4c-70.8,57.7-58.8,162.8-83.6,248.3
			c-19.5,67.4-66.1,127.4-128.1,165c-36.2,22-77.1,36.4-112.2,59.9c-35.1,23.5-65.1,60-63.4,100.8
			C1172.6,1235.1,1022.7,1229.9,852.4,1241.8z"/>
		<path class="st0" d="M70.3,424.5c42,56.4,111.8,93.1,184.3,97s146.2-25.1,194.6-76.7c54.3-57.8,79.5-142.4,150.3-180.8
			c43.4-23.5,100.2-26.9,132.5-63.1c25.9-28.9,27.9-72.2,14.2-107.9s-40.8-65.1-69-92c-14.6-13.9-38.3-10.5-57.8-3.7
			c45.4,26.8,48.5,101.5,16.7,142.4s-84.7,61-135.6,76.2c-47.3,14.1-97.1,25.8-146,18C224.4,213.1,157.9,69.4,38.9,15
			C10.2,152.6-14.9,310.1,70.3,424.5z"/>
	</g>
</g>
</svg>
