<svg xmlns="http://www.w3.org/2000/svg" viewBox="0 0 379.73 472.81"><defs><style>.cls-1{fill:#7e4093;}.cls-2{fill:#eebf31;}.cls-3{fill:#f1c83e;}.cls-4{fill:#fafcff;}.cls-5{fill:#654d43;}.cls-6{fill:#cb4378;}.cls-7{fill:#fbebb2;}.cls-8{fill:#d97c2d;}.cls-9{fill:#d15f9e;}.cls-10{fill:#e0952f;}.cls-11,.cls-12{fill:#fff;}.cls-11{opacity:0.1;}.cls-12{opacity:0.15;}</style></defs><title>Recurso 1</title><g id="Capa_2" data-name="Capa 2"><g id="Capa_1-2" data-name="Capa 1"><polygon class="cls-1" points="174.87 102.45 195.96 102.45 191.74 23.74 179.09 23.74 174.87 102.45"/><path class="cls-2" d="M178.08,10.61c.26,5.16,3.82,8.89,7.06,8.89a6.43,6.43,0,0,0,6.25-7.9C190.33,7.22,184.21,8.24,183,0,183,0,177.81,5.2,178.08,10.61Z"/><path class="cls-3" d="M187.09,19.14c-3.18-.19-6.58-4.34-6.84-10.06-.15-3.38,1.35-6.69,2.72-9,1.29,8.12,7.37,7.14,8.42,11.5A6.28,6.28,0,0,1,187.09,19.14Z"/><path class="cls-4" d="M193.43,25.68c0,.64-.59,4-1.2,4.16s-1.11-.37-1.36-.91-.53-1.76-1-1.85-.47.46-.7.74a1,1,0,0,1-1.41-.11c-.38-.36-.59-.86-.94-1.26-.72-.81-1.77-.68-1.81.63a17.52,17.52,0,0,1,0,1.77c-.22,1.95-2.35,1.68-2.46-.08,0-.67.13-1.53-.46-1.86s-1.21.27-1.46.85c-.64,1.43-.27,3.08-.37,4.64a3.16,3.16,0,0,1-.61,1.82,1.46,1.46,0,0,1-1.75.43,1.78,1.78,0,0,1-.48-2.16,14.71,14.71,0,0,0,.93-2.22,8,8,0,0,0-.58-3.24c-.4-1.61-.1-3.56,1.26-4.5a4.21,4.21,0,0,1,2.91-.74c1.79.27,3.44-.25,5.17-.38a15,15,0,0,1,2.42,0C193.41,21.75,193.43,24.5,193.43,25.68Z"/><path class="cls-5" d="M184.7,22.66c0,.36,1.53.35,1.43,0a34.89,34.89,0,0,1-.72-5.1H185S184.78,21.84,184.7,22.66Z"/><polygon class="cls-6" points="236.62 102.45 252.32 102.45 249.18 43.83 239.76 43.83 236.62 102.45"/><path class="cls-2" d="M239,34.05c.19,3.84,2.85,6.62,5.26,6.62a4.79,4.79,0,0,0,4.66-5.89c-.79-3.26-5.36-2.5-6.29-8.63C242.64,26.15,238.81,30,239,34.05Z"/><path class="cls-3" d="M245.72,40.4c-2.36-.14-4.9-3.23-5.09-7.49a12.48,12.48,0,0,1,2-6.69c1,6.05,5.48,5.32,6.27,8.56A4.69,4.69,0,0,1,245.72,40.4Z"/><path class="cls-4" d="M250.45,45.27c0,.48-.44,3-.9,3.1a1,1,0,0,1-1-.67c-.16-.32-.4-1.32-.74-1.38s-.35.34-.53.55a.75.75,0,0,1-1-.08c-.29-.27-.44-.65-.7-.94-.54-.61-1.32-.51-1.35.47,0,.44.09.88,0,1.32-.17,1.45-1.75,1.24-1.83-.07,0-.5.09-1.14-.35-1.38s-.9.2-1.09.63c-.47,1.06-.2,2.29-.27,3.46a2.37,2.37,0,0,1-.45,1.35,1.09,1.09,0,0,1-1.31.32,1.31,1.31,0,0,1-.35-1.61,10.24,10.24,0,0,0,.68-1.65,5.83,5.83,0,0,0-.43-2.41,3.17,3.17,0,0,1,.94-3.35,3.12,3.12,0,0,1,2.17-.55,16.46,16.46,0,0,0,3.85-.29,13.52,13.52,0,0,1,1.8,0A2.76,2.76,0,0,1,250.45,45.27Z"/><path class="cls-5" d="M243.94,43c0,.26,1.14.25,1.07,0a25.27,25.27,0,0,1-.54-3.81h-.34S244,42.41,243.94,43Z"/><polygon class="cls-2" points="118.5 102.45 134.21 102.45 131.06 43.83 121.64 43.83 118.5 102.45"/><path class="cls-2" d="M120.89,34.05c.19,3.84,2.85,6.62,5.26,6.62a4.79,4.79,0,0,0,4.66-5.89c-.79-3.26-5.36-2.5-6.29-8.63C124.52,26.15,120.69,30,120.89,34.05Z"/><path class="cls-3" d="M127.6,40.4c-2.36-.14-4.9-3.23-5.09-7.49a12.48,12.48,0,0,1,2-6.69c1,6.05,5.48,5.32,6.27,8.56A4.69,4.69,0,0,1,127.6,40.4Z"/><path class="cls-4" d="M132.33,45.27c0,.48-.44,3-.9,3.1a1,1,0,0,1-1-.67c-.15-.32-.4-1.32-.74-1.38s-.35.34-.52.55a.76.76,0,0,1-1-.08c-.28-.27-.44-.65-.7-.94-.54-.61-1.32-.51-1.35.47,0,.44.09.88,0,1.32-.17,1.45-1.75,1.24-1.83-.07,0-.5.09-1.14-.34-1.38s-.9.2-1.1.63c-.47,1.06-.2,2.29-.27,3.46a2.3,2.3,0,0,1-.45,1.35,1.09,1.09,0,0,1-1.31.32,1.31,1.31,0,0,1-.35-1.61,11.29,11.29,0,0,0,.69-1.65,6,6,0,0,0-.44-2.41,3.15,3.15,0,0,1,1-3.35,3.1,3.1,0,0,1,2.16-.55,16.46,16.46,0,0,0,3.85-.29,13.69,13.69,0,0,1,1.81,0A2.76,2.76,0,0,1,132.33,45.27Z"/><path class="cls-5" d="M125.82,43c0,.26,1.14.25,1.07,0a26.69,26.69,0,0,1-.54-3.81H126S125.88,42.41,125.82,43Z"/><path class="cls-7" d="M61,258.46H309.8s30-121.49,0-139.14C261,90.59,100.41,89.9,61,119.32,33.15,140.13,61,258.46,61,258.46Z"/><path class="cls-7" d="M22.42,472.81H349.35s38.77-188.5-.62-211.7c-64.11-37.75-275.17-38.65-326.93,0C-14.83,288.47,22.42,472.81,22.42,472.81Z"/><path class="cls-6" d="M324.91,134c8.79,11.88,12.18,24.3,12.55,40.48.4,17.62-6.64,25-13,25.05-5.15,0-9-14.79-12.24-19.93-4.49-7.09-12.62-8.22-18.47-2.91-2.77,2.51-5.33,15.17-8.42,17-2,1.19-4.31,2.23-6.42,1.34-6.28-2.68-3.33-15-3.14-18.86.82-16.77-15.49-28.8-24.54-21.81-5,3.88-4.44,13.06-6.22,20.13-4.83,19.14-26.43,20.19-32.42,1.56-1.55-4.81-1.67-10.14-2.87-15.1-2.45-10.06-9.86-18.12-18.22-19.06s-17.05,5.73-19.67,15.72c-2,7.57-.69,16.4-6,22.47-4.58,5.29-11.85,5.68-16.65.7s-5.49-13.17-7.7-20.21c-2-6.47-7-12.94-12.33-11-9.62,10.56.2,35.59-11.62,43.65-3,2-13,4.41-20.59-.21-13.54-8.21,1.87-20.34-14.61-28.39a7.37,7.37,0,0,0-7.67.54c-9.79,7-6.94,29-18.48,33.91A10.51,10.51,0,0,1,46,197.58c-12-8.48-14.31-36.42-7.53-51.78,3.46-7.81,8.62-15.34,15.4-18.15C174.52,77.62,305.79,114.19,324.91,134Z"/><path class="cls-8" d="M363.74,281.65c16,15.71,13.28,54,15.49,83,.7,9.19,1.09,19.13-1.79,26.95s-10.29,11.41-14.11,4.57c-3.17-5.68-2.21-14.48-1.95-22.14.39-11.07-1.66-23.53-7.4-29.43s-15.11-.29-15.07,10.81c0,7.68,4.19,15,2.73,22.27-1.58,7.88-8.92,8.07-12.59,2.23s-4.66-14.75-5.58-23-2.24-17.18-6.27-22.34c-5.71-7.32-14.06-3.44-19.91,3.2s-10.85,15.82-17.61,19.51c-8,4.35-17.53-.54-22.79-11.63-2.48-5.24-4-11.5-5.83-17.41-2.62-8.39-6.23-16.57-11.47-20.26s-12.31-1.11-14.55,7.42c-1.93,7.32.15,15.75.61,23.77.48,8.22-1,17.1-4.92,22.12s-10.32,4.69-13.37-1.92c-3-6.43-1.91-15.38-2.25-23.4-.74-17.52-10.35-33.56-20.92-33.2s-19.62,18.81-16.81,35.8c1.09,6.6,3.61,12.3,5.28,18.57s2.38,14,0,19.46a9.55,9.55,0,0,1-7.63,6c-6,.68-12.09-4.46-15.34-12.88-2.19-5.65-3.07-12.34-4.11-18.8-1.67-10.45-4-21.1-8.63-28.76s-12.17-11.44-17.8-6.26c-4.21,3.87-6.47,11.69-7.88,19.34-3.63,19.66-4.11,43.56-14.14,55.52-1.63,1.94-3.57,3.49-5.58,3.16C88,393.3,85.6,387.18,85,381.38s-.19-11.83-.92-17.61c-1.15-9.09-5.46-17-10.81-19.76s-11.51-.37-15.45,6.07c-8.66,14.17-6.24,43.45-17.44,51.46-1.66,1.19-3.62,1.7-5.29.43-5.12-3.89-2.81-19-7.6-23.92-6.55-6.77-14.63,15-20.93,7.59-1.71-2-2.44-5.57-3-8.91-4.24-24.56-5.61-52,1.61-74.24C10,287.32,18.22,275.19,27.69,268,92.2,218.85,317.17,236,363.74,281.65Z"/><path class="cls-9" d="M324.91,126.11c8.79,11.88,12.18,24.29,12.55,40.48.4,17.61-6.64,25-13,25-5.15,0-9-14.78-12.24-19.92-4.49-7.09-12.62-8.22-18.47-2.92-2.77,2.52-5.33,15.18-8.42,17-2,1.18-4.31,2.23-6.42,1.33-6.28-2.68-3.33-15-3.14-18.86.82-16.76-15.49-28.79-24.54-21.81-5,3.89-4.44,13.07-6.22,20.13-4.83,19.15-26.43,20.19-32.42,1.56-1.55-4.8-1.67-10.14-2.87-15.09C207.3,143,199.89,134.93,191.53,134s-17.05,5.74-19.67,15.73c-2,7.57-.69,16.4-6,22.47-4.58,5.28-11.85,5.67-16.65.7s-5.49-13.18-7.7-20.22c-2-6.47-7-12.94-12.33-11-9.62,10.55.2,35.58-11.62,43.64-3,2-13,4.41-20.59-.21-13.54-8.21,1.87-20.34-14.61-28.39a7.35,7.35,0,0,0-7.67.55c-9.79,7-6.94,29-18.48,33.9A10.53,10.53,0,0,1,46,189.66c-12-8.49-14.31-36.43-7.53-51.78,3.46-7.82,8.62-15.34,15.4-18.15C174.52,69.69,305.79,106.27,324.91,126.11Z"/><path class="cls-10" d="M363.74,268c16,15.71,13.28,54,15.49,82.95.7,9.18,1.09,19.13-1.79,27s-10.29,11.41-14.11,4.57c-3.17-5.69-2.21-14.48-1.95-22.14.39-11.08-1.66-23.53-7.4-29.43s-15.11-.3-15.07,10.81c0,7.68,4.19,15,2.73,22.27-1.58,7.88-8.92,8.06-12.59,2.22s-4.66-14.75-5.58-23-2.24-17.19-6.27-22.34c-5.71-7.32-14.06-3.45-19.91,3.2s-10.85,15.82-17.61,19.51c-8,4.34-17.53-.54-22.79-11.64-2.48-5.23-4-11.5-5.83-17.4-2.62-8.39-6.23-16.58-11.47-20.26s-12.31-1.12-14.55,7.42c-1.93,7.32.15,15.75.61,23.77.48,8.22-1,17.1-4.92,22.12s-10.32,4.68-13.37-1.92c-3-6.43-1.91-15.39-2.25-23.41-.74-17.51-10.35-33.55-20.92-33.2s-19.62,18.81-16.81,35.81c1.09,6.59,3.61,12.29,5.28,18.56s2.38,14.05,0,19.47a9.55,9.55,0,0,1-7.63,6c-6,.68-12.09-4.47-15.34-12.88-2.19-5.65-3.07-12.34-4.11-18.81-1.67-10.44-4-21.09-8.63-28.75s-12.17-11.45-17.8-6.26c-4.21,3.87-6.47,11.68-7.88,19.33-3.63,19.67-4.11,43.57-14.14,55.53-1.63,1.94-3.57,3.49-5.58,3.15-3.54-.59-5.91-6.7-6.56-12.51s-.19-11.82-.92-17.61c-1.15-9.08-5.46-17-10.81-19.75s-11.51-.37-15.45,6.06c-8.66,14.17-6.24,43.45-17.44,51.46-1.66,1.19-3.62,1.71-5.29.44-5.12-3.89-2.81-19-7.6-23.92-6.55-6.78-14.63,15-20.93,7.59-1.71-2-2.44-5.58-3-8.91-4.24-24.56-5.61-52,1.61-74.24,4.94-15.17,13.12-27.31,22.59-34.52C92.2,205.14,317.17,222.24,363.74,268Z"/><path class="cls-11" d="M39.19,257.57c0,4.54,64.83-11.86,144.8-11.86s144.8,16.4,144.8,11.86S264,232.88,184,232.88,39.19,253,39.19,257.57Z"/><path class="cls-9" d="M252.53,214.76a4.22,4.22,0,1,0,4.21-4.22A4.22,4.22,0,0,0,252.53,214.76Z"/><path class="cls-9" d="M69.81,199.83A4.22,4.22,0,1,0,74,195.61,4.21,4.21,0,0,0,69.81,199.83Z"/><path class="cls-9" d="M204,202.11a4.22,4.22,0,1,0,4.21-4.22A4.21,4.21,0,0,0,204,202.11Z"/><path class="cls-9" d="M297.86,198a4.22,4.22,0,1,0,4.21-4.22A4.21,4.21,0,0,0,297.86,198Z"/><path class="cls-9" d="M109.05,210.54a4.22,4.22,0,1,0,4.22-4.21A4.22,4.22,0,0,0,109.05,210.54Z"/><path class="cls-4" d="M157.65,206.33a4.22,4.22,0,1,0,4.22-4.22A4.21,4.21,0,0,0,157.65,206.33Z"/><circle class="cls-4" cx="133.06" cy="195.74" r="2.28"/><path class="cls-4" d="M76,220.21a2.29,2.29,0,1,0,2.28-2.29A2.28,2.28,0,0,0,76,220.21Z"/><path class="cls-4" d="M187.58,175.7a2.29,2.29,0,1,0,2.29-2.28A2.29,2.29,0,0,0,187.58,175.7Z"/><path class="cls-4" d="M284.33,222.49a2.29,2.29,0,1,0,2.28-2.28A2.29,2.29,0,0,0,284.33,222.49Z"/><path class="cls-4" d="M248.31,189.24a4.22,4.22,0,1,0,4.22-4.22A4.22,4.22,0,0,0,248.31,189.24Z"/><path class="cls-10" d="M271.69,434.86a5.47,5.47,0,1,0,5.47-5.47A5.47,5.47,0,0,0,271.69,434.86Z"/><path class="cls-10" d="M34.67,415.49A5.47,5.47,0,1,0,40.14,410,5.46,5.46,0,0,0,34.67,415.49Z"/><path class="cls-4" d="M214.26,415.49a5.47,5.47,0,1,0,5.47-5.47A5.46,5.46,0,0,0,214.26,415.49Z"/><path class="cls-10" d="M330.49,413.15a5.47,5.47,0,1,0,5.46-5.47A5.46,5.46,0,0,0,330.49,413.15Z"/><path class="cls-4" d="M69.59,426.65a8.21,8.21,0,1,0,8.2-8.2A8.21,8.21,0,0,0,69.59,426.65Z"/><path class="cls-10" d="M148.62,423.92a5.47,5.47,0,1,0,5.47-5.47A5.47,5.47,0,0,0,148.62,423.92Z"/><path class="cls-10" d="M113.75,410.19a3,3,0,1,0,3-3A3,3,0,0,0,113.75,410.19Z"/><path class="cls-10" d="M42.65,441.92a3,3,0,1,0,3-3A3,3,0,0,0,42.65,441.92Z"/><path class="cls-10" d="M187.44,384.19a3,3,0,1,0,3-3A3,3,0,0,0,187.44,384.19Z"/><circle class="cls-10" cx="196.33" cy="450.81" r="2.96"/><path class="cls-10" d="M312.94,444.88a3,3,0,1,0,3-3A3,3,0,0,0,312.94,444.88Z"/><path class="cls-10" d="M116.72,453.77a3,3,0,1,0,3-3A3,3,0,0,0,116.72,453.77Z"/><path class="cls-10" d="M245.35,363.73a3,3,0,1,0,3-3A3,3,0,0,0,245.35,363.73Z"/><path class="cls-4" d="M283.43,392.63a5.47,5.47,0,1,0,5.47-5.47A5.46,5.46,0,0,0,283.43,392.63Z"/><path class="cls-12" d="M87.14,117.7c0,4.15,44.07-9.38,98.42-9.38S284,121.85,284,117.7s-44.06-19.85-98.42-19.85S87.14,113.55,87.14,117.7Z"/><path class="cls-12" d="M59.94,127.55c.56,1.52,5.81,1,11.74-1.21s10.27-5.17,9.71-6.69-5.81-1-11.73,1.21S59.38,126,59.94,127.55Z"/></g></g></svg>