<svg xmlns="http://www.w3.org/2000/svg" xmlns:xlink="http://www.w3.org/1999/xlink" viewBox="0 0 1040.8 503.48"><defs><style>.cls-1{fill:none;}.cls-2{isolation:isolate;}.cls-3{fill:#d66e2c;}.cls-12,.cls-4{fill:#fafcff;}.cls-4{opacity:0.38;}.cls-5{fill:#e0952f;}.cls-6{fill:#eebf31;}.cls-7{fill:#242424;opacity:0.34;mix-blend-mode:multiply;}.cls-8{fill:#7e4093;}.cls-9{fill:#5d2f8c;}.cls-10{opacity:0.14;mix-blend-mode:screen;}.cls-11{clip-path:url(#clip-path);}.cls-13{fill:#799d4a;}.cls-14{fill:#9cc053;}.cls-15{fill:#c72462;}.cls-16{clip-path:url(#clip-path-2);}.cls-17{fill:#6abad1;}.cls-18{clip-path:url(#clip-path-3);}.cls-19,.cls-21{fill:#b91f60;}.cls-20{fill:#d15b7b;}.cls-21{opacity:0.56;}.cls-22{clip-path:url(#clip-path-4);}.cls-23{fill:#dedfde;}.cls-24{fill:#f4f4f5;}</style><clipPath id="clip-path"><rect id="SVGID" class="cls-1" x="170.99" y="201.76" width="189.25" height="160.02" transform="translate(550.97 543.51) rotate(175.84)"/></clipPath><clipPath id="clip-path-2"><rect id="SVGID-2" data-name="SVGID" class="cls-1" x="319.35" y="233.14" width="151.85" height="128.39" transform="translate(779.18 609.2) rotate(-177.86)"/></clipPath><clipPath id="clip-path-3"><rect id="SVGID-3" data-name="SVGID" class="cls-1" x="448.69" y="266.02" width="168.62" height="142.58" transform="translate(1063.11 679.15) rotate(-179.51)"/></clipPath><clipPath id="clip-path-4"><rect id="SVGID-4" data-name="SVGID" class="cls-1" x="768.35" y="205.73" width="181.08" height="153.11" transform="translate(-10.05 32.63) rotate(-2.16)"/></clipPath></defs><title>Recurso 2</title><g class="cls-2"><g id="Capa_2" data-name="Capa 2"><g id="Capa_1-2" data-name="Capa 1"><polygon class="cls-3" points="216.81 392.46 0 342.37 48.37 139.91 265.18 190 216.81 392.46"/><path class="cls-4" d="M77.88,182.55a7.35,7.35,0,1,1-5.5-8.81A7.35,7.35,0,0,1,77.88,182.55Z"/><path class="cls-4" d="M96.54,284.14A5.1,5.1,0,1,1,92.72,278,5.09,5.09,0,0,1,96.54,284.14Z"/><path class="cls-4" d="M190.4,203.31a5.11,5.11,0,1,1-3.82-6.12A5.09,5.09,0,0,1,190.4,203.31Z"/><circle class="cls-4" cx="205.02" cy="247.77" r="6.27" transform="translate(-99.56 350.99) rotate(-69.11)"/><path class="cls-4" d="M158.15,350.39a6.27,6.27,0,1,1-4.7-7.52A6.27,6.27,0,0,1,158.15,350.39Z"/><path class="cls-4" d="M99.9,240.57a3.67,3.67,0,1,1-2.75-4.41A3.66,3.66,0,0,1,99.9,240.57Z"/><path class="cls-4" d="M10.77,299.55A3.67,3.67,0,1,1,8,295.14,3.68,3.68,0,0,1,10.77,299.55Z"/><path class="cls-4" d="M173.49,253.8a3.67,3.67,0,1,1-2.75-4.4A3.67,3.67,0,0,1,173.49,253.8Z"/><path class="cls-4" d="M57.37,271.32a3.67,3.67,0,1,1-2.75-4.41A3.67,3.67,0,0,1,57.37,271.32Z"/><path class="cls-4" d="M115.66,195.05a3.67,3.67,0,1,1-2.75-4.41A3.67,3.67,0,0,1,115.66,195.05Z"/><path class="cls-4" d="M242.28,224.31a3.67,3.67,0,1,1-2.75-4.41A3.67,3.67,0,0,1,242.28,224.31Z"/><path class="cls-4" d="M224.9,299.55a3.67,3.67,0,1,1-2.75-4.41A3.68,3.68,0,0,1,224.9,299.55Z"/><path class="cls-4" d="M56.36,226.74a3.67,3.67,0,1,1-2.75-4.41A3.67,3.67,0,0,1,56.36,226.74Z"/><path class="cls-4" d="M180.5,299.77a3.67,3.67,0,1,1-2.75-4.41A3.67,3.67,0,0,1,180.5,299.77Z"/><path class="cls-4" d="M60,314.72a3.67,3.67,0,1,1-2.76-4.4A3.69,3.69,0,0,1,60,314.72Z"/><rect class="cls-3" x="31.16" y="107.61" width="264.32" height="58.1" transform="translate(34.96 -33.26) rotate(13.01)"/><path class="cls-5" d="M170,100.5S139.76,12,173.68,8.29c0,0-10.78-5.17-16.87-7.67-6.89-2.83-19.33,4-21.63,21.53C130,61.3,169.82,108.5,169.82,108.5Z"/><path class="cls-6" d="M169.82,108.5s43.7-49.25,27.41-83.14A29.88,29.88,0,0,0,181.63,11L156.81.62s44.91,24.93,6,98.69Z"/><path class="cls-5" d="M195.71,66.57S180.63,81.28,174.18,92c0,0-1.21-4.45-3.26-10.36a170.59,170.59,0,0,1-8.12,17.68l7,9.19s17.06-19.23,25.89-41.93Z"/><path class="cls-5" d="M164.73,102.33S84.08,54.9,107.41,30c0,0-11.54,3.11-17.79,5.18-7.07,2.35-12,15.67-2.36,30.43,21.62,33,82.56,42.89,82.56,42.89Z"/><path class="cls-6" d="M169.82,108.5s1-65.83-33.42-80.91a30,30,0,0,0-21.18-.71l-25.6,8.3s50.31-10.37,68.89,70.93Z"/><path class="cls-5" d="M177.11,105.19s93.28-7.25,83.23-39.86c0,0,9,7.86,13.72,12.47,5.33,5.21,3.93,19.35-11.23,28.38-33.92,20.2-93,2.32-93,2.32Z"/><path class="cls-6" d="M169.82,108.5s28-59.61,65.53-58a29.9,29.9,0,0,1,19.35,8.66L274.06,77.8s-40.66-31.39-93,33.52Z"/><path class="cls-6" d="M104.88,135.54l8-1.92,8.19,7.91s8.5-53.44,37.4-35.42l-1.2-8.6a2.35,2.35,0,0,0-1-1.4C148.92,91.18,120.41,75.14,104.88,135.54Z"/><path class="cls-6" d="M212.78,161l-6-8.13-11.17,5.91s18.74-44-14.56-47.42l2.59-8C192.69,105.37,225.47,101.75,212.78,161Z"/><rect class="cls-6" x="144.18" y="106.74" width="30.8" height="58.1" transform="translate(34.67 -32.44) rotate(13.01)"/><rect class="cls-6" x="115.85" y="161.3" width="25.4" height="217.55" transform="translate(64.1 -22.01) rotate(13.01)"/><rect class="cls-7" x="44.11" y="164.8" width="222.52" height="12.5" transform="translate(42.49 -30.59) rotate(13.01)"/><polygon class="cls-8" points="760.61 400.37 586.46 372.95 613.33 210.23 787.48 237.66 760.61 400.37"/><path class="cls-4" d="M639.05,242.27a5.83,5.83,0,1,1-4.85-6.65A5.83,5.83,0,0,1,639.05,242.27Z"/><path class="cls-4" d="M659.49,321.51a4,4,0,1,1-3.36-4.62A4.05,4.05,0,0,1,659.49,321.51Z"/><path class="cls-4" d="M729.13,252.37a4,4,0,1,1-3.37-4.63A4,4,0,0,1,729.13,252.37Z"/><path class="cls-4" d="M748.09,287.46a5,5,0,1,1-4.14-5.68A5,5,0,0,1,748.09,287.46Z"/><path class="cls-4" d="M711.9,370.41a5,5,0,1,1-4.14-5.68A5,5,0,0,1,711.9,370.41Z"/><path class="cls-4" d="M659.7,286.89a2.91,2.91,0,1,1-2.42-3.33A2.91,2.91,0,0,1,659.7,286.89Z"/><path class="cls-4" d="M592.57,338.5a2.91,2.91,0,1,1-2.43-3.33A2.91,2.91,0,0,1,592.57,338.5Z"/><path class="cls-4" d="M718.6,293.22a2.91,2.91,0,1,1-2.42-3.33A2.91,2.91,0,0,1,718.6,293.22Z"/><path class="cls-4" d="M627.82,313.58a2.91,2.91,0,1,1-2.43-3.33A2.92,2.92,0,0,1,627.82,313.58Z"/><path class="cls-4" d="M669.6,250a2.91,2.91,0,1,1-2.42-3.33A2.92,2.92,0,0,1,669.6,250Z"/><path class="cls-4" d="M771.31,266.05a2.91,2.91,0,1,1-2.42-3.33A2.91,2.91,0,0,1,771.31,266.05Z"/><path class="cls-4" d="M761.79,326.48a2.91,2.91,0,1,1-2.42-3.32A2.91,2.91,0,0,1,761.79,326.48Z"/><path class="cls-4" d="M624.51,278.4a2.91,2.91,0,1,1-2.42-3.33A2.91,2.91,0,0,1,624.51,278.4Z"/><path class="cls-4" d="M726.72,329.15a2.91,2.91,0,1,1-2.42-3.33A2.91,2.91,0,0,1,726.72,329.15Z"/><path class="cls-4" d="M632.36,347.73a2.92,2.92,0,1,1-2.43-3.33A2.92,2.92,0,0,1,632.36,347.73Z"/><rect class="cls-8" x="599.28" y="178.2" width="209.41" height="46.03" transform="translate(39.87 -107.06) rotate(8.95)"/><path class="cls-5" d="M707.23,172.26S678.37,104,705,99.18c0,0-8.81-3.48-13.77-5.11-5.6-1.85-15.05,4.27-15.88,18.23-1.87,31.22,32.22,66.3,32.22,66.3Z"/><path class="cls-6" d="M707.55,178.6s31.77-41.38,17-67.25a23.71,23.71,0,0,0-13.14-10.46l-20.2-6.82s36.89,17.18,10.27,77.66Z"/><path class="cls-5" d="M725.66,144s-11.1,12.47-15.6,21.29c0,0-1.2-3.44-3.15-8a133.36,133.36,0,0,1-5.43,14.43l6.07,6.87S720,162.44,725.66,144Z"/><path class="cls-5" d="M703.18,174s-66.4-33-49.36-53.94c0,0-9,3.1-13.77,5.09-5.46,2.25-8.62,13.06-.16,24.18,19,24.9,67.66,29.27,67.66,29.27Z"/><path class="cls-6" d="M707.55,178.6s-2.89-52.09-31-62.07a23.61,23.61,0,0,0-16.77.63l-19.77,8s39.18-11,58.42,52.19Z"/><path class="cls-5" d="M713.12,175.57s73.31-11,63.55-36.17c0,0,7.56,5.7,11.53,9.08,4.5,3.82,4.2,15.08-7.28,23.06-25.67,17.87-73.37,7.06-73.37,7.06Z"/><path class="cls-6" d="M707.55,178.6S726.3,129.92,756.08,129a23.69,23.69,0,0,1,15.77,5.76l16.35,13.68S754.31,126,716.57,180.19Z"/><path class="cls-6" d="M657.74,203.61l6.25-2,6.91,5.79s3.72-42.71,27.57-30.09l-1.42-6.73a2,2,0,0,0-.87-1.05C690.06,166.08,666.63,155,657.74,203.61Z"/><path class="cls-6" d="M744.44,217.64l-5.21-6.08-8.49,5.3s12.34-35.82-14.17-36.67l1.6-6.47C725.44,174.84,751.15,170.14,744.44,217.64Z"/><rect class="cls-6" x="688.78" y="177.72" width="24.4" height="46.03" transform="translate(39.76 -106.6) rotate(8.95)"/><rect class="cls-6" x="673.94" y="222.42" width="20.12" height="172.36" transform="translate(56.33 -102.64) rotate(8.95)"/><rect class="cls-7" x="611.49" y="223.88" width="176.3" height="9.9" transform="translate(44.11 -106.05) rotate(8.95)"/><rect class="cls-9" x="170.99" y="201.76" width="189.25" height="160.02" transform="translate(550.97 543.51) rotate(175.84)"/><g class="cls-10"><g class="cls-11"><rect class="cls-12" x="178.2" y="200.37" width="293.77" height="15" transform="translate(435.1 577.72) rotate(-139.16)"/><rect class="cls-12" x="155.61" y="226.51" width="293.77" height="15" transform="translate(378.32 608.86) rotate(-139.16)"/><rect class="cls-12" x="133.02" y="252.65" width="293.77" height="15" transform="translate(321.54 640) rotate(-139.16)"/><rect class="cls-12" x="110.42" y="278.79" width="293.77" height="15" transform="translate(264.77 671.14) rotate(-139.16)"/><rect class="cls-12" x="87.83" y="304.92" width="293.77" height="15" transform="translate(207.99 702.28) rotate(-139.16)"/><rect class="cls-12" x="65.24" y="331.06" width="293.77" height="15" transform="translate(151.22 733.42) rotate(-139.16)"/><rect class="cls-12" x="42.65" y="357.2" width="293.77" height="15" transform="translate(94.44 764.56) rotate(-139.16)"/></g></g><rect class="cls-9" x="145.61" y="152.63" width="224.8" height="49.41" transform="translate(528.21 335.47) rotate(175.84)"/><path class="cls-13" d="M257.14,146.07s37-70.45,8.95-78c0,0,9.74-2.94,15.18-4.24,6.16-1.48,15.72,5.92,15.36,20.93-.8,33.56-40.4,68-40.4,68Z"/><path class="cls-14" d="M256.23,152.82S226,105.71,244.07,79.36a25.47,25.47,0,0,1,15-10l22.22-5.49s-41,15.08-17.94,82.16Z"/><path class="cls-13" d="M240,114.2s10.75,14.33,14.77,24.18c0,0,1.6-3.58,4.09-8.29A147.46,147.46,0,0,0,263.33,146l-7.1,6.8S244.4,134.43,240,114.2Z"/><path class="cls-13" d="M261.32,148.3S335.29,119,318.94,95c0,0,9.3,4.12,14.28,6.69,5.63,2.89,8,14.74-2,25.88-22.49,24.93-75,25.24-75,25.24Z"/><path class="cls-14" d="M256.23,152.82S264,97.36,294.9,89.2a25.46,25.46,0,0,1,17.89,2.17l20.43,10.33s-40.92-15.3-67.17,50.59Z"/><path class="cls-13" d="M250.54,149.08s-77.45-18.29-64.74-44.38c0,0-8.6,5.43-13.15,8.68-5.16,3.68-5.84,15.75,5.72,25.32,25.86,21.41,77.86,14.12,77.86,14.12Z"/><path class="cls-14" d="M256.23,152.82s-15.7-53.75-47.48-57.35a25.47,25.47,0,0,0-17.39,4.74l-18.71,13.17s38.27-21.06,73.78,40.34Z"/><path class="cls-14" d="M307.27,184l-6.51-2.67L292.85,187s-.16-46-26.8-34.66l2.12-7.07a2.09,2.09,0,0,1,1-1.05C276.06,141,302.11,131.25,307.27,184Z"/><path class="cls-14" d="M213.27,191.29l6.11-6,8.61,6.43s-10-39.42,18.44-37.95l-1.13-7.07C237.42,147.19,210.34,139.86,213.27,191.29Z"/><rect class="cls-14" x="248.17" y="152.39" width="26.2" height="49.41" transform="translate(534.7 334.76) rotate(175.84)"/><rect class="cls-14" x="258.07" y="201.52" width="21.6" height="160.02" transform="translate(557.46 542.8) rotate(175.84)"/><rect class="cls-7" x="165.56" y="201.96" width="189.25" height="10.63" transform="translate(534.74 395.11) rotate(175.84)"/><rect class="cls-15" x="319.35" y="233.14" width="151.85" height="128.39" transform="translate(779.18 609.2) rotate(-177.86)"/><g class="cls-10"><g class="cls-16"><rect class="cls-12" x="331.35" y="237.62" width="235.71" height="12.04" transform="translate(576.2 738.63) rotate(-132.86)"/><rect class="cls-12" x="311.04" y="256.48" width="235.71" height="12.04" transform="translate(528.24 755.42) rotate(-132.86)"/><rect class="cls-12" x="290.72" y="275.33" width="235.71" height="12.04" transform="translate(480.28 772.21) rotate(-132.86)"/><rect class="cls-12" x="270.4" y="294.19" width="235.71" height="12.04" transform="translate(432.31 789) rotate(-132.86)"/><rect class="cls-12" x="250.08" y="313.04" width="235.71" height="12.04" transform="matrix(-0.68, -0.73, 0.73, -0.68, 384.35, 805.79)"/><rect class="cls-12" x="229.76" y="331.9" width="235.71" height="12.04" transform="translate(336.39 822.58) rotate(-132.86)"/><rect class="cls-12" x="209.45" y="350.76" width="235.71" height="12.04" transform="translate(288.43 839.38) rotate(-132.86)"/></g></g><rect class="cls-15" x="308.22" y="193.55" width="180.37" height="39.64" transform="translate(788.58 441.45) rotate(-177.86)"/><path class="cls-5" d="M400.46,188.37s35.7-52.94,14-61.4c0,0,8-1.48,12.48-2,5-.64,12,6.1,10.41,18-3.6,26.7-38.22,50.7-38.22,50.7Z"/><path class="cls-6" d="M399.14,193.67s-20-40.23-3.23-59.65a20.46,20.46,0,0,1,12.83-6.67L427,124.93s-34,8.41-21.55,63.94Z"/><path class="cls-5" d="M389.57,161.44s7.31,12.37,9.65,20.58c0,0,1.59-2.72,4-6.25a119.19,119.19,0,0,0,2.19,13.1l-6.26,4.8s-7.81-15.71-9.58-32.23Z"/><path class="cls-5" d="M403.6,190.51s61.58-16.86,50.65-37.42c0,0,7.05,4.1,10.79,6.58,4.24,2.81,5.13,12.47-3.87,20.47-20.13,17.9-62,13.53-62,13.53Z"/><path class="cls-6" d="M399.14,193.67s11.07-43.55,36.44-47.34a20.46,20.46,0,0,1,14.08,3.31l15.38,10s-31.29-15.8-58,34.44Z"/><path class="cls-5" d="M394.93,190.19s-60.15-21.41-47.72-41.1c0,0-7.33,3.57-11.25,5.77-4.44,2.48-6,12,2.33,20.69,18.74,19.36,60.85,18.12,60.85,18.12Z"/><path class="cls-6" d="M399.14,193.67s-7.79-44.25-32.81-49.92A20.46,20.46,0,0,0,352,146L336,154.86s32.38-13.43,55.29,38.66Z"/><path class="cls-6" d="M437.1,223.06l-5-2.7-6.8,3.75s3.93-36.72-18.32-30l2.32-5.45a1.6,1.6,0,0,1,.9-.74C416,186,437.63,180.5,437.1,223.06Z"/><path class="cls-6" d="M361.49,220.56l5.41-4.28,6.3,5.89s-4.49-32.32,18.05-28.65l-.28-5.73C384.64,187.53,363.69,179.3,361.49,220.56Z"/><rect class="cls-6" x="390.51" y="193.65" width="21.02" height="39.64" transform="translate(793.81 441.75) rotate(-177.86)"/><rect class="cls-6" x="389.23" y="233.23" width="17.33" height="128.39" transform="translate(784.42 609.49) rotate(-177.86)"/><rect class="cls-7" x="321.58" y="233.18" width="151.85" height="8.53" transform="matrix(-1, -0.04, 0.04, -1, 785.88, 489.54)"/><rect class="cls-17" x="448.69" y="266.02" width="168.62" height="142.58" transform="translate(1063.11 679.15) rotate(-179.51)"/><g class="cls-10"><g class="cls-18"><rect class="cls-12" x="460.28" y="269.3" width="261.75" height="13.37" transform="translate(808.78 891.02) rotate(-134.51)"/><rect class="cls-12" x="438.33" y="290.88" width="261.75" height="13.37" transform="translate(756.05 912.07) rotate(-134.51)"/><rect class="cls-12" x="416.38" y="312.46" width="261.75" height="13.37" transform="translate(703.32 933.13) rotate(-134.51)"/><rect class="cls-12" x="394.43" y="334.04" width="261.75" height="13.37" transform="translate(650.59 954.18) rotate(-134.51)"/><rect class="cls-12" x="372.48" y="355.62" width="261.75" height="13.37" transform="translate(597.86 975.24) rotate(-134.51)"/><rect class="cls-12" x="350.52" y="377.2" width="261.75" height="13.37" transform="translate(545.13 996.3) rotate(-134.51)"/><rect class="cls-12" x="328.57" y="398.78" width="261.75" height="13.37" transform="translate(492.4 1017.35) rotate(-134.51)"/></g></g><rect class="cls-17" x="433.65" y="222" width="200.3" height="44.02" transform="matrix(-1, -0.01, 0.01, -1, 1065.49, 492.57)"/><path class="cls-19" d="M535.28,216.19s37.93-59.9,13.58-68.6c0,0,8.86-1.9,13.79-2.67,5.58-.86,13.53,6.4,12.13,19.7-3.14,29.75-40.8,57.5-40.8,57.5Z"/><path class="cls-20" d="M534,222.12s-23.49-44-5.49-66.11a22.61,22.61,0,0,1,14-7.81l20.13-3.28s-37.5,10.44-21.87,71.67Z"/><path class="cls-21" d="M522.32,186.64s8.51,13.51,11.37,22.54c0,0,1.68-3.06,4.23-7.06a131.49,131.49,0,0,0,2.86,14.47l-6.8,5.53s-9.17-17.19-11.66-35.48Z"/><path class="cls-19" d="M538.83,218.47s67.81-20.69,55-43.16c0,0,8,4.33,12.2,7,4.79,3,6.09,13.67-3.65,22.84-21.77,20.51-68.42,17-68.42,17Z"/><path class="cls-20" d="M534,222.12s10.89-48.69,38.94-53.71a22.68,22.68,0,0,1,15.73,3.23l17.4,10.64s-35.24-16.54-63.31,40.08Z"/><path class="cls-19" d="M529.2,218.39s-67.46-21.84-54.29-44.09c0,0-8,4.19-12.31,6.76-4.84,2.89-6.32,13.56,3.26,22.89C487.28,224.84,534,222.12,534,222.12Z"/><path class="cls-20" d="M534,222.12s-10.06-48.87-38-54.37a22.68,22.68,0,0,0-15.78,3L462.6,181.06s35.52-15.94,62.62,41.15Z"/><path class="cls-20" d="M577.05,253.53l-5.58-2.84L564,255.07s3.19-40.88-21.29-32.71l2.4-6.13a1.78,1.78,0,0,1,1-.85C552.45,213.05,576.29,206.28,577.05,253.53Z"/><path class="cls-20" d="M493.05,253.18l5.87-4.93,7.18,6.33s-6-35.73,19.12-32.37l-.5-6.36C517.68,215.76,494.17,207.3,493.05,253.18Z"/><rect class="cls-20" x="525.03" y="222.03" width="23.34" height="44.02" transform="translate(1071.31 492.64) rotate(-179.51)"/><rect class="cls-20" x="526.29" y="266.05" width="19.25" height="142.58" transform="translate(1068.92 679.23) rotate(-179.51)"/><rect class="cls-7" x="449.26" y="266.02" width="168.62" height="9.47" transform="translate(1064.81 546.05) rotate(-179.51)"/><rect class="cls-15" x="768.35" y="205.73" width="181.08" height="153.11" transform="translate(-10.05 32.63) rotate(-2.16)"/><g class="cls-10"><g class="cls-22"><rect class="cls-12" x="654" y="211.1" width="281.08" height="14.35" transform="translate(94.27 652.51) rotate(-47.16)"/><rect class="cls-12" x="678.24" y="233.58" width="281.08" height="14.35" transform="translate(85.55 677.48) rotate(-47.16)"/><rect class="cls-12" x="702.48" y="256.05" width="281.08" height="14.35" transform="translate(76.82 702.45) rotate(-47.16)"/><rect class="cls-12" x="726.72" y="278.53" width="281.08" height="14.35" transform="translate(68.1 727.42) rotate(-47.16)"/><rect class="cls-12" x="750.96" y="301" width="281.08" height="14.35" transform="translate(59.38 752.39) rotate(-47.16)"/><rect class="cls-12" x="775.2" y="323.48" width="281.08" height="14.35" transform="translate(50.66 777.36) rotate(-47.16)"/><rect class="cls-12" x="799.44" y="345.95" width="281.08" height="14.35" transform="translate(41.94 802.32) rotate(-47.16)"/></g></g><rect class="cls-15" x="747.56" y="158.52" width="215.09" height="47.28" transform="translate(-6.27 32.42) rotate(-2.16)"/><path class="cls-23" d="M852.64,152.34S810,89.24,835.91,79.13c0,0-9.57-1.76-14.89-2.43C815,76,806.7,84,808.62,98.22c4.3,31.84,45.6,60.44,45.6,60.44Z"/><path class="cls-12" d="M854.22,158.66s23.83-48,3.82-71.13a24.35,24.35,0,0,0-15.31-8L821,76.7s40.58,10,25.73,76.24Z"/><path class="cls-23" d="M865.62,120.22s-8.71,14.76-11.5,24.55c0,0-1.9-3.24-4.76-7.45a140.82,140.82,0,0,1-2.61,15.62l7.47,5.72s9.3-18.73,11.4-38.44Z"/><path class="cls-23" d="M848.9,154.9s-73.44-20.08-60.42-44.6c0,0-8.4,4.9-12.87,7.86-5.05,3.35-6.11,14.87,4.63,24.4,24,21.34,74,16.1,74,16.1Z"/><path class="cls-12" d="M854.22,158.66S841,106.74,810.73,102.23a24.34,24.34,0,0,0-16.78,4l-18.34,12s37.3-18.86,69.21,41Z"/><path class="cls-23" d="M859.23,154.51s71.72-25.56,56.89-49c0,0,8.75,4.25,13.42,6.86,5.3,3,7.22,14.37-2.77,24.69-22.34,23.09-72.55,21.63-72.55,21.63Z"/><path class="cls-12" d="M854.22,158.66s9.26-52.77,39.1-59.55a24.37,24.37,0,0,1,17,2.68l19.19,10.55s-38.62-16-65.91,46.15Z"/><path class="cls-12" d="M809,193.73l5.91-3.22L823,195s-4.7-43.78,21.83-35.78l-2.77-6.5a1.89,1.89,0,0,0-1.07-.89C834.11,149.51,808.31,143,809,193.73Z"/><path class="cls-12" d="M899.13,190.71l-6.46-5.1-7.51,7s5.35-38.54-21.53-34.14l.33-6.85C871.51,151.33,896.49,141.5,899.13,190.71Z"/><rect class="cls-24" x="839.45" y="158.64" width="25.07" height="47.28" transform="translate(-6.28 32.31) rotate(-2.16)"/><rect class="cls-24" x="845.43" y="205.84" width="20.67" height="153.11" transform="translate(-10.05 32.5) rotate(-2.16)"/><rect class="cls-7" x="765.65" y="205.78" width="181.08" height="10.17" transform="translate(-7.35 32.48) rotate(-2.16)"/></g></g></g></svg>